<?xml version="1.0" standalone="no"?><!DOCTYPE svg PUBLIC "-//W3C//DTD SVG 1.1//EN" "http://www.w3.org/Graphics/SVG/1.1/DTD/svg11.dtd"><svg t="1611376989448" class="icon" viewBox="0 0 1024 1024" version="1.1" xmlns="http://www.w3.org/2000/svg" p-id="7478" xmlns:xlink="http://www.w3.org/1999/xlink" width="200" height="200"><defs><style type="text/css"></style></defs><path d="M635.733333 388.266667c0-81.066667-68.266667-149.333333-149.333333-149.333334S337.066667 307.2 337.066667 388.266667s68.266667 149.333333 149.333333 149.333333 149.333333-64 149.333333-149.333333z m-247.466666 0c0-55.466667 42.666667-98.133333 98.133333-98.133334s98.133333 42.666667 98.133333 98.133334-42.666667 98.133333-98.133333 98.133333-98.133333-42.666667-98.133333-98.133333z" fill="#0E0F0F" p-id="7479"></path><path d="M477.866667 780.8c4.266667 4.266667 8.533333 4.266667 17.066666 4.266667 4.266667 0 12.8 0 17.066667-4.266667 8.533333-8.533333 238.933333-196.266667 238.933333-405.333333 0-149.333333-119.466667-268.8-268.8-268.8S213.333333 226.133333 213.333333 375.466667c-4.266667 204.8 251.733333 396.8 264.533334 405.333333z m0-622.933333c119.466667 0 217.6 98.133333 217.6 217.6 0 153.6-157.866667 307.2-204.8 349.866666-55.466667-42.666667-226.133333-196.266667-226.133334-349.866666-4.266667-119.466667 93.866667-217.6 213.333334-217.6z" fill="#0E0F0F" p-id="7480"></path><path d="M704 601.6c-12.8 0-25.6 12.8-25.6 25.6s12.8 25.6 25.6 25.6c0 0 76.8 8.533333 85.333333 149.333333H187.733333c8.533333-145.066667 85.333333-149.333333 85.333334-149.333333 17.066667 0 25.6-12.8 25.6-25.6s-12.8-25.6-25.6-25.6c-38.4 0-136.533333 42.666667-136.533334 226.133333 0 12.8 12.8 25.6 25.6 25.6h652.8c12.8 0 25.6-12.8 25.6-25.6 0-187.733333-98.133333-226.133333-136.533333-226.133333z" fill="#0E0F0F" p-id="7481"></path></svg>