<?xml version="1.0" standalone="no"?><!DOCTYPE svg PUBLIC "-//W3C//DTD SVG 1.1//EN" "http://www.w3.org/Graphics/SVG/1.1/DTD/svg11.dtd"><svg t="1611376939753" class="icon" viewBox="0 0 1024 1024" version="1.1" xmlns="http://www.w3.org/2000/svg" p-id="5860" xmlns:xlink="http://www.w3.org/1999/xlink" width="200" height="200"><defs><style type="text/css"></style></defs><path d="M389.084632 466.836602a77.035743 77.035743 0 0 0 77.831567-77.831567V233.421484a233.415118 233.415118 0 1 0-233.415118 233.415118z m245.829969 0h155.583551a233.415118 233.415118 0 1 0-233.415118-233.415118v155.663134a77.990731 77.990731 0 0 0 77.831567 77.751984zM389.084632 557.08302H233.501081a233.415118 233.415118 0 1 0 233.415118 233.415118V634.914587a77.990731 77.990731 0 0 0-77.831567-77.831567z m245.829969 0a77.035743 77.035743 0 0 0-77.831567 77.831567v155.583551a233.415118 233.415118 0 1 0 233.415118-233.415118z" fill="#999999" p-id="5861"></path><path d="M634.516689 557.08302a77.035743 77.035743 0 0 0-77.831567 77.831567v155.583551a233.415118 233.415118 0 1 0 233.415118-233.415118z" fill="#999999" p-id="5862"></path></svg>