<?xml version="1.0" standalone="no"?><!DOCTYPE svg PUBLIC "-//W3C//DTD SVG 1.1//EN" "http://www.w3.org/Graphics/SVG/1.1/DTD/svg11.dtd"><svg t="1611377393433" class="icon" viewBox="0 0 1024 1024" version="1.1" xmlns="http://www.w3.org/2000/svg" p-id="10278" xmlns:xlink="http://www.w3.org/1999/xlink" width="200" height="200"><defs><style type="text/css"></style></defs><path d="M714.742 549.352H302.768c-25.2 0-32.415-15.88-32.415-37.628 0-21.748 7.215-33.83 32.45-33.83h411.939c18.4-2.659 35.833 8.043 38.905 23.922a25.511 25.511 0 0 1 0.242 8.182c2.83 19.124-12.808 36.592-34.935 39.078-1.416 0.172-2.831 0.241-4.212 0.276z m0-209.68H302.768c-25.2 0-32.415-10.012-32.415-31.76 0-21.749 7.215-37.283 32.45-37.283h411.939c20.126-2.244 38.56 10.011 41.08 27.41 0.345 2.002 0.414 4.039 0.276 6.075 1.554 18.297-14.395 34.176-35.591 35.557a40.182 40.182 0 0 1-5.765 0z" fill="#2C2C2C" p-id="10279"></path><path d="M652.811 725.754h273.441V101.372c-1.277-3.072-2.071-3.624-2.554-3.624H97.748v628.006h272.854l143.159 195.7L652.81 725.72z m-148.51 208.99l56.27 39.976-48.33-48.123c0.691-0.103 1.589-0.345 2.314-0.345 1.38 0 2.14-0.138 2.485-0.276a0.794 0.794 0 0 0 0.242-0.138l-4.902-4.937-48.951 48.675 55.717-40.735-5.385-7.387-9.46 13.29zM923.699 28.706c35.798 0 61.378 25.718 71.596 61.689v637.534c0 36.005-30.689 66.867-66.487 66.867h-240.37L560.57 974.72c-15.327 15.43-30.655 20.574-46.016 20.574-15.328 0-35.799-10.287-46.017-20.574l-5.11-5.144-127.865-174.78H95.193c-35.798 0-66.487-30.862-66.487-66.867V95.539c0-35.971 30.689-66.833 66.487-66.833h828.505z" fill="#2C2C2C" p-id="10280"></path></svg>