<?xml version="1.0" standalone="no"?><!DOCTYPE svg PUBLIC "-//W3C//DTD SVG 1.1//EN" "http://www.w3.org/Graphics/SVG/1.1/DTD/svg11.dtd"><svg t="1611371480566" class="icon" viewBox="0 0 1024 1024" version="1.1" xmlns="http://www.w3.org/2000/svg" p-id="3367" xmlns:xlink="http://www.w3.org/1999/xlink" width="200" height="200"><defs><style type="text/css"></style></defs><path d="M581.4 308.7c0 0.6-0.5 1-1.1 1H559c-0.6 0-1.1-0.4-1.1-1s0.5-1 1.1-1h21.3c0.6 0 1.1 0.5 1.1 1zM581.4 302.6c0 0.6-0.5 1-1.1 1H559c-0.6 0-1.1-0.4-1.1-1s0.5-1 1.1-1h21.3c0.6 0 1.1 0.5 1.1 1zM581.4 314.8c0 0.6-0.5 1-1.1 1H559c-0.6 0-1.1-0.4-1.1-1s0.5-1 1.1-1h21.3c0.6 0 1.1 0.4 1.1 1z" fill="#FFFFFF" p-id="3368"></path><path d="M489.4 432.4v316.7c0 12.7 10 22.6 22.6 22.6 12.7 0 22.6-10 22.6-22.6V432.4c0-12.7-10-22.6-22.6-22.6-12.7-0.1-22.6 9.9-22.6 22.6z m0 0M469.5 305.7c0 23.5 19 42.5 42.5 42.5s42.5-19 42.5-42.5-19-42.5-42.5-42.5-42.5 19-42.5 42.5z m0 0" fill="" p-id="3369"></path><path d="M906.5 382.6c-3.6-11.8-17.2-18.1-29-14.5-11.8 3.6-18.1 17.2-14.5 29 12.7 37.1 19 76.9 19 114.9 0 204.5-165.6 370.1-370.1 370.1-204.5 0-370.1-165.6-370.1-370.1 0-204.5 165.6-370.1 370.1-370.1 116.7 0 223.5 53.4 294.1 145.7 7.2 10 21.7 11.8 31.7 4.5 10-7.2 11.8-21.7 4.5-31.7-78.6-104-199-163.7-330.2-163.7C283.1 96.7 96.7 283.1 96.7 512S283.1 927.3 512 927.3 927.3 740.9 927.3 512c0-44.3-7.2-87.8-20.8-129.4z m0 0" fill="" p-id="3370"></path></svg>