<?xml version="1.0" standalone="no"?><!DOCTYPE svg PUBLIC "-//W3C//DTD SVG 1.1//EN" "http://www.w3.org/Graphics/SVG/1.1/DTD/svg11.dtd"><svg class="icon" width="200px" height="191.76px" viewBox="0 0 1068 1024" version="1.1" xmlns="http://www.w3.org/2000/svg"><path fill="#e6e6e6" d="M574.097999 966.002941a18.622599 18.622599 0 0 0-7.709993 1.660614l-3.914304 2.490921a101.416063 101.416063 0 0 1-98.569296 6.761071l3.083997-2.609536a15.894447 15.894447 0 0 0-5.100457-27.044284l-45.548266-15.894447-2.253691-0.830307A15.894447 15.894447 0 0 0 393.2097 948.922341l3.677074 19.690136 5.693533 30.128281a15.894447 15.894447 0 0 0 25.976746 9.133376l5.693533-4.863226a136.6448 136.6448 0 0 0 145.540946 0c2.846767-1.779229 5.574918-3.439843 8.30307-5.337688a18.622599 18.622599 0 0 0-13.996603-31.077202zM653.68885 903.72992l-9.370606-3.321227a139.254336 139.254336 0 0 0 0.830306-14.82691 137.712338 137.712338 0 0 0-77.455776-123.83435c-3.083997-1.541999-6.049379-2.846767-9.251992-4.151535h-2.372305a17.673676 17.673676 0 0 0-10.319529 32.026125l6.405225 2.846767a102.127754 102.127754 0 0 1 57.409794 91.808225v4.032919l-3.558458-1.186152a15.894447 15.894447 0 0 0-20.876289 17.910906l6.998301 36.770737 2.490921 13.04768a15.894447 15.894447 0 0 0 25.976746 9.133377l0.830307-0.711692 37.601043-32.381971a15.894447 15.894447 0 0 0-5.337688-27.162899zM406.613227 902.187922c0-2.846767-0.948922-5.812149-1.186153-8.777531s0-6.049379 0-9.133376A102.246369 102.246369 0 0 1 450.856725 798.99263l0.830307 4.151535a15.894447 15.894447 0 0 0 25.976746 9.133376l35.584584-30.12828 3.321227-2.846767a15.894447 15.894447 0 0 0-6.405225-27.162899l-11.861527-4.032919L462.718253 735.414841a15.894447 15.894447 0 0 0-20.876289 17.910907l1.897845 9.963683a137.830953 137.830953 0 0 0-74.37178 122.292352v10.79399c0 3.558458 0.830307 8.184454 1.541999 11.861528a18.622599 18.622599 0 0 0 35.584583-6.405225zM471.614399 165.231201H278.864573a12.81045 12.81045 0 0 0-14.471064 14.471064v202.357664q0 16.843369 14.471064 14.471063h192.749826q16.843369 2.372306 14.471064-14.471063V179.702265q2.372306-14.471064-14.471064-14.471064z m-53.021029 188.005215H332.241448q-23.723056 2.490921-23.723056-23.723056v-101.653293a21.35075 21.35075 0 0 1 23.723056-23.723055h86.707768q26.451207 0 23.723055 23.723055v101.178832q2.372306 26.807053-24.078901 24.197517zM686.070821 189.784563l-4.863226 19.33429q23.723056 86.707768 55.393335 130.476806 33.805354-56.223642 38.549965-149.811096z"  /><path fill="#e6e6e6" d="M533.88742 0.000119a533.76875 533.76875 0 0 0-276.017752 990.6748V722.485776a26.213976 26.213976 0 0 1 1.186153-7.354147h-27.993205a33.686739 33.686739 0 0 1 0-67.492093h182.548912a100.704371 100.704371 0 0 1 196.18967 0h182.430297a33.686739 33.686739 0 0 1 0 67.492093h-26.925668a26.213976 26.213976 0 0 1 1.186153 7.472762v291.793584A533.76875 533.76875 0 0 0 533.88742 0.000119z m-57.409795 411.001937H274.001346q-23.723056 2.372306-23.723055-23.723055V174.839038a21.35075 21.35075 0 0 1 23.723055-23.723055h202.476279q26.451207 0 23.723056 26.451207v209.355965q2.728151 26.451207-23.723056 24.078901z m156.572167 11.861528q-7.235532 9.607838-14.471064 0V355.845952l-43.413191 14.233833q-23.723056 7.235532-23.723056-23.723055V165.231201q7.235532-9.607838 14.471064 0V343.984424q0 14.471064 11.861528 9.607838l40.922271-14.471064V141.152299q7.235532-9.607838 14.471063 0z m183.141989 2.372306a400.326563 400.326563 0 0 1-79.472236-62.628867 371.621665 371.621665 0 0 1-81.963157 62.628867q-14.471064 0-7.235532-11.861528a343.272614 343.272614 0 0 0 79.472236-62.628867 374.349817 374.349817 0 0 1-53.021029-118.615278 257.395153 257.395153 0 0 1-19.215675 43.413192q-9.607838 4.863226-11.861528-7.235532a348.491686 348.491686 0 0 0 35.584584-127.748654q9.607838-9.607838 14.471063 2.372305-2.490921 16.843369-4.863226 31.314434h130.476806q11.861528 7.235532 0 14.471064h-28.942128q-4.863226 98.806526-43.413192 161.435393a438.876528 438.876528 0 0 0 77.099931 62.628866q7.116917 10.200914-7.116917 12.691835z"  /><path fill="#e6e6e6" d="M413.848759 218.25223h-79.472236a10.675375 10.675375 0 0 0-11.861528 11.861528v93.9433q0 16.843369 14.471064 14.471064h77.09993q16.843369 2.490921 14.471064-14.471064v-91.333764q2.135075-14.471064-14.708294-14.471064z"  /></svg>