<?xml version="1.0" standalone="no"?><!DOCTYPE svg PUBLIC "-//W3C//DTD SVG 1.1//EN" "http://www.w3.org/Graphics/SVG/1.1/DTD/svg11.dtd"><svg t="1611385266666" class="icon" viewBox="0 0 1024 1024" version="1.1" xmlns="http://www.w3.org/2000/svg" p-id="2596" xmlns:xlink="http://www.w3.org/1999/xlink" width="200" height="200"><defs><style type="text/css"></style></defs><path d="M843.200512 121.25798400000002H180.795392c-14.39744 0-104.198144 0-104.198144 104.198144v573.067264c0 104.22067199999998 104.198144 104.22067199999998 104.198144 104.22067199999998H843.20256c104.198144 0 104.198144-104.22067199999998 104.198144-104.22067199999998V225.45612800000004c0.002048-104.198144-89.78841599999998-104.198144-104.200192-104.198144m52.099072 677.265408s-75.231232-56.788992-80.248832-61.036544a138192.7936 138192.7936 0 0 1-30.963711999999997-26.208256c-32.395264-27.410432-64.612352-55.02976-96.782336-82.700288-16.082944-13.840384-32.149504-27.693056-48.238592-41.53344-9.121792-7.847936000000001-27.643904-32.714752-41.78944-24.825856-10.96704 6.121472-103.395328 87.187456-103.395328 87.187456-27.11552-25.104384-54.233088-50.19648-81.330176-75.321344-13.535232-12.562432-26.845184-25.432064-40.617984-37.742592-25.720832-22.992896-41.797632-45.613056-75.880448-17.215488-26.451968 22.040576-52.23424 43.47904-79.822848 64.28672a20455.745536 20455.745536 0 0 0-55.934976 42.405888c-3.57376 2.7136-31.588352 19.488768-31.588352 23.883776V225.45612800000004c0-52.10112 37.691392-52.10112 52.088832-52.10112h662.403072c14.411776 0 52.099072 0 52.099072 52.10112v573.067264z" fill="#272636" p-id="2597"></path><path d="M731.559936 313.214976c-41.857024 0-75.790336 33.988608-75.790336 75.91936 0 41.897984 33.931264 75.902976 75.790336 75.902976 41.836544 0 75.78624-34.004992 75.78624-75.902976 0-41.930752-33.949696-75.91936-75.78624-75.91936" fill="#272636" p-id="2598"></path></svg>