<?xml version="1.0" standalone="no"?><!DOCTYPE svg PUBLIC "-//W3C//DTD SVG 1.1//EN" "http://www.w3.org/Graphics/SVG/1.1/DTD/svg11.dtd"><svg t="1611377002717" class="icon" viewBox="0 0 1024 1024" version="1.1" xmlns="http://www.w3.org/2000/svg" p-id="8314" xmlns:xlink="http://www.w3.org/1999/xlink" width="200" height="200"><defs><style type="text/css"></style></defs><path d="M512 13.473684C237.109895 13.473684 13.473684 237.109895 13.473684 512S237.109895 1010.526316 512 1010.526316 1010.526316 786.890105 1010.526316 512 786.890105 13.473684 512 13.473684z m0 970.105263C251.984842 983.578947 40.421053 772.015158 40.421053 512S251.984842 40.421053 512 40.421053 983.578947 251.984842 983.578947 512 772.015158 983.578947 512 983.578947z" fill="#231815" p-id="8315"></path><path d="M340.668632 300.355368h78.255157L512 482.357895l93.076211-182.002527h78.255157l-115.60421 208.087579h78.848v36.756211h-99.597474l-0.592842 0.592842v50.984421h100.190316v36.756211h-100.190316v90.112h-68.769684V633.532632h-99.597474v-36.756211h99.597474v-50.984421l-0.592842-0.592842h-99.004632v-36.756211h78.255158z" fill="#231815" p-id="8316"></path></svg>