<?xml version="1.0" standalone="no"?><!DOCTYPE svg PUBLIC "-//W3C//DTD SVG 1.1//EN" "http://www.w3.org/Graphics/SVG/1.1/DTD/svg11.dtd"><svg t="1611371456664" class="icon" viewBox="0 0 1025 1024" version="1.1" xmlns="http://www.w3.org/2000/svg" p-id="2560" xmlns:xlink="http://www.w3.org/1999/xlink" width="200.1953125" height="200"><defs><style type="text/css"></style></defs><path d="M512.509095 703.973803a191.977323 191.977323 0 1 0-191.977323-191.977323 188.585723 188.585723 0 0 0 191.977323 191.977323z m0-319.962204a127.984882 127.984882 0 1 1-127.984882 127.984881 128.368836 128.368836 0 0 1 127.984882-127.984881z" fill="#989898" p-id="2561"></path><path d="M384.524213 1023.936008h255.969764a30.204432 30.204432 0 0 0 31.99622-31.996221v-121.585638a697.517606 697.517606 0 0 0 70.391685-38.395464l102.387906 63.992441a33.724016 33.724016 0 0 0 44.794708-12.798488l127.984882-223.973544a27.51675 27.51675 0 0 0-12.798488-44.794708l-102.387905-63.992441V473.601016l102.387905-63.992441a27.51675 27.51675 0 0 0 12.798488-44.794709l-127.984882-223.973543a29.820477 29.820477 0 0 0-44.794708-6.399244l-102.387906 63.992441a248.162686 248.162686 0 0 0-70.391685-38.395464v-127.984882a30.204432 30.204432 0 0 0-31.99622-31.996221h-255.969764a30.204432 30.204432 0 0 0-31.99622 31.996221v121.585637a697.517606 697.517606 0 0 0-70.391685 38.395465l-102.387906-63.992441a33.724016 33.724016 0 0 0-44.794708 12.798488l-127.984882 223.973543a27.51675 27.51675 0 0 0 12.798488 44.794709l102.387906 63.992441v76.790929l-102.387906 63.992441a36.731661 36.731661 0 0 0-12.798488 44.794708l127.984882 223.973544a36.667669 36.667669 0 0 0 44.794708 12.798488l102.387906-63.992441a248.162686 248.162686 0 0 0 70.391685 38.395464v121.585638a30.204432 30.204432 0 0 0 31.99622 31.996221z m223.973543-63.992441h-191.977322v-108.78715a35.195842 35.195842 0 0 0-19.197733-31.99622 407.759833 407.759833 0 0 1-89.589417-51.193953 40.763185 40.763185 0 0 0-38.395464 0l-95.988662 57.593197-95.988661-166.380347 95.988661-57.593196c12.798488-12.798488 19.197732-25.596976 12.798489-38.395465 0-19.197732-6.399244-31.99622-6.399245-51.193953a140.78337 140.78337 0 0 1 6.399245-51.193952 48.890225 48.890225 0 0 0-12.798489-31.996221l-95.988661-57.593197 95.988661-166.380346 95.988662 57.593197a40.763185 40.763185 0 0 0 38.395464 0 407.759833 407.759833 0 0 1 89.589417-51.193953 55.353461 55.353461 0 0 0 19.197733-38.395464V64.049394h191.977322v108.78715a35.195842 35.195842 0 0 0 19.197733 31.99622 407.759833 407.759833 0 0 1 89.589417 51.193953 40.763185 40.763185 0 0 0 38.395464 0l95.988662-51.193953 95.988661 166.380346-95.988661 57.593197a23.357241 23.357241 0 0 0-12.798488 31.996221c0 19.197732 6.399244 31.99622 6.399244 51.193952a140.78337 140.78337 0 0 1-6.399244 51.193953 23.357241 23.357241 0 0 0 12.798488 31.996221l95.988661 57.593196-95.988661 166.380347-95.988662-57.593197a40.763185 40.763185 0 0 0-38.395464 0 407.759833 407.759833 0 0 1-89.589417 51.193953 35.195842 35.195842 0 0 0-19.197733 31.99622z" fill="#989898" p-id="2562"></path></svg>