<?xml version="1.0" standalone="no"?><!DOCTYPE svg PUBLIC "-//W3C//DTD SVG 1.1//EN" "http://www.w3.org/Graphics/SVG/1.1/DTD/svg11.dtd"><svg class="icon" width="200px" height="200.00px" viewBox="0 0 1024 1024" version="1.1" xmlns="http://www.w3.org/2000/svg"><path fill="#e6e6e6" d="M626.499284 519.35133l29.346329 29.411318 80.386204-80.771143-29.411319-28.995384zM750.331572 413.884118c-2.350626-2.349626-5.448133-3.499443-8.998567-3.499443a12.317039 12.317039 0 0 0-8.998568 3.499443l-9.049559 9.04856 29.39532 29.028379 9.031563-9.031562a11.502169 11.502169 0 0 0 3.51744-8.648624c0-3.499443-1.183812-6.647942-3.51744-9.015565l-11.380189-11.381188zM592.405711 582.456285l47.025514-17.28025-29.429315-29.39532z"  /><path fill="#e6e6e6" d="M511.918523 0c-282.721996 0-511.918513 229.213514-511.918513 511.918513s229.196517 511.918513 511.918513 511.918513c282.722996 0 511.918513-229.213514 511.918513-511.918513s-229.197516-511.918513-511.918513-511.918513z m226.66392 714.954194c0 27.060692-20.395753 47.825387-46.24264 47.825387H331.713208c-25.462947 0-45.059827-20.764695-45.059828-47.825387v-407.635113c0-26.295814 19.596881-46.259636 45.059828-46.259636h270.489943l101.117904 107.782843-21.563567 21.562567-70.188827-74.50514v66.239456c-0.015997 4.499284 1.768718 8.798599 4.934214 11.965096 3.166496 3.166496 7.465812 4.966209 11.948098 4.89922h44.676889l-30.962072 30.977069h-13.714817c-26.245822 0-47.843384-21.179629-47.843384-47.442448v-92.135334H331.713208c-9.414501 0-16.830321 7.448814-16.830321 16.89731v407.65111c0 9.397504 7.41482 16.830321 16.830321 16.830321h360.626595c9.380507 0 16.813324-7.397822 16.813324-16.830321l-0.366941-152.873665 29.796257-31.394003v184.270668zM370.507033 565.576972h136.412286c9.431499 0 17.247255 7.864748 17.247254 17.280249 0 9.397504-7.815756 17.21426-17.247254 17.21426H370.507033c-9.365509 0-17.229257-7.815756-17.229258-17.21426-0.001-9.415501 7.863748-17.280249 17.229258-17.280249z m-17.230258-78.754464c0-9.398504 7.863748-17.247255 17.229258-17.247255h136.412286c9.431499 0 17.247255 7.848751 17.247254 17.247255 0 9.431499-7.815756 17.247255-17.247254 17.247254H370.507033c-9.364509 0-17.230257-7.815756-17.230258-17.247254z m17.230258 170.471864h288.487078c9.449496 0 17.264252 7.84975 17.264252 17.265252 0 9.431499-7.814756 17.264252-17.264252 17.264252H370.507033c-9.365509 0-17.229257-7.832753-17.229258-17.264252-0.001-9.415501 7.863748-17.265252 17.229258-17.265252z m136.412286-252.408822H370.507033c-9.365509 0-17.229257-7.882745-17.229258-17.280249 0-9.364509 7.863748-17.230257 17.229258-17.230257h136.412286c9.431499 0 17.247255 7.831753 17.247254 17.230257 0 9.465493-7.816756 17.280249-17.247254 17.280249z m270.906877 54.842271L651.995225 585.574788l-68.590081 24.695069c-12.147066 4.33331-23.945188-7.41482-19.22894-19.59688l25.861884-67.40727 125.447031-125.828971c7.248846-7.465812 17.431225-11.348194 27.795576-10.565318 9.04856 0.898857 17.497215 4.915218 23.896196 11.331196l10.598313 10.598313a36.212236 36.212236 0 0 1 10.599313 25.479944c0 9.582475-3.799395 18.748016-10.548321 25.44695z"  /></svg>