<?xml version="1.0" standalone="no"?><!DOCTYPE svg PUBLIC "-//W3C//DTD SVG 1.1//EN" "http://www.w3.org/Graphics/SVG/1.1/DTD/svg11.dtd"><svg t="1611377034183" class="icon" viewBox="0 0 1024 1024" version="1.1" xmlns="http://www.w3.org/2000/svg" p-id="9309" xmlns:xlink="http://www.w3.org/1999/xlink" width="200" height="200"><defs><style type="text/css"></style></defs><path d="M130.56 377.173333h108.8c14.933333 0 27.306667-12.373333 27.306667-27.306666 0-14.933333-12.373333-27.306667-27.306667-27.306667H130.56c-14.933333 0-27.306667 12.373333-27.306667 27.306667 0.426667 14.933333 12.373333 27.306667 27.306667 27.306666zM130.56 540.586667h108.8c14.933333 0 27.306667-12.373333 27.306667-27.306667 0-14.933333-12.373333-27.306667-27.306667-27.306667H130.56c-14.933333 0-27.306667 12.373333-27.306667 27.306667 0.426667 14.933333 12.373333 27.306667 27.306667 27.306667zM266.666667 676.693333c0-14.933333-12.373333-27.306667-27.306667-27.306666H130.56c-14.933333 0-27.306667 12.373333-27.306667 27.306666 0 14.933333 12.373333 27.306667 27.306667 27.306667h108.8c14.933333-0.426667 27.306667-12.373333 27.306667-27.306667z" fill="#347798" p-id="9310"></path><path d="M835.84 77.653333H242.346667c-46.506667 0-84.906667 37.973333-84.906667 84.906667v78.506667h54.613333V155.306667c0-8.96 14.08-23.04 23.04-23.04h607.573334c8.96 0 23.04 14.08 23.04 23.04v716.373333c0 8.96-14.08 23.04-23.04 23.04H235.52c-8.96 0-23.04-14.08-23.04-23.04v-86.186667H157.866667v78.933334c0 46.506667 37.973333 84.48 84.906666 84.48H836.266667c46.506667 0 84.906667-37.973333 84.906666-84.48V162.56c-0.853333-46.933333-38.826667-84.906667-85.333333-84.906667z" fill="#347798" p-id="9311"></path><path d="M640.426667 504.32a123.989333 123.989333 0 0 0-87.04-212.48c-68.693333 0-124.16 55.466667-124.16 124.16 0 34.56 14.08 66.133333 37.12 88.746667-53.76 26.026667-90.026667 80.64-90.026667 172.373333 0 29.44 26.453333 54.613333 54.613333 54.613333h245.333334c25.6 0 54.613333-28.16 54.613333-54.613333-0.426667-92.586667-36.693333-147.2-90.453333-172.8zM552.96 345.6a70.016 70.016 0 0 1 0 139.946667c-38.4 0-69.973333-31.146667-69.973333-69.973334 0.426667-38.4 31.573333-69.973333 69.973333-69.973333z m84.053333 331.52h-162.986666c-18.346667 0-36.266667-2.133333-36.266667-30.293333 0.853333-75.52 52.906667-106.24 117.76-106.24 64.853333 0 117.333333 30.293333 117.76 106.24 0 23.466667-19.2 30.293333-36.266667 30.293333z" fill="#347798" p-id="9312"></path></svg>