<?xml version="1.0" standalone="no"?><!DOCTYPE svg PUBLIC "-//W3C//DTD SVG 1.1//EN" "http://www.w3.org/Graphics/SVG/1.1/DTD/svg11.dtd"><svg t="1611372118259" class="icon" viewBox="0 0 1024 1024" version="1.1" xmlns="http://www.w3.org/2000/svg" p-id="5060" xmlns:xlink="http://www.w3.org/1999/xlink" width="200" height="200"><defs><style type="text/css"></style></defs><path d="M152.158689 512.182444c0 198.013066 160.551134 358.5642 358.5642 358.5642s358.5642-160.551134 358.5642-358.5642-160.551134-358.5642-358.5642-358.5642S152.158689 314.169379 152.158689 512.182444z m0 0" fill="#5ACBBD" p-id="5061"></path><path d="M464.381993 685.139803c-10.581779 0-21.041929-4.257038-29.556004-12.649483-16.906521-16.906521-14.717187-44.273192 2.067704-59.112009l105.452904-101.195867-105.452904-101.195866c-16.906521-16.906521-16.906521-42.205488-2.067704-59.112009 16.906521-16.906521 42.205488-16.906521 59.112008-2.067704l137.076613 130.751871c8.392446 8.392446 12.649483 18.974225 12.649483 29.556004 0 10.581779-4.257038 23.231263-12.649483 29.556005L493.816368 670.300986c-8.392446 10.581779-18.974225 14.838817-29.434375 14.838817z m0 0" fill="#FFFFFF" p-id="5062"></path></svg>