<?xml version="1.0" standalone="no"?><!DOCTYPE svg PUBLIC "-//W3C//DTD SVG 1.1//EN" "http://www.w3.org/Graphics/SVG/1.1/DTD/svg11.dtd"><svg t="1611371504068" class="icon" viewBox="0 0 1024 1024" version="1.1" xmlns="http://www.w3.org/2000/svg" p-id="4252" xmlns:xlink="http://www.w3.org/1999/xlink" width="200" height="200"><defs><style type="text/css"></style></defs><path d="M373.007 28.15H98.53C42.225 28.15 0 73.897 0 126.679v249.84c0 56.305 45.747 98.53 98.53 98.53h274.472c56.3 0 98.524-45.747 98.524-98.53V126.68c0.006-52.782-42.22-98.53-98.519-98.53z m49.265 348.37c0 28.155-21.115 49.264-49.265 49.264H98.53c-28.15 0-49.264-21.11-49.264-49.264V126.679c0-28.15 21.115-49.265 49.264-49.265h274.473c28.15 0 49.265 21.115 49.265 49.265v249.84h0.005z" fill="#A7A6AB" p-id="4253"></path><path d="M161.869 168.909h147.794v147.789H161.869v-147.79z m204.098 387.077H98.53c-52.787 0-95.012 42.23-95.012 98.53V897.32c0 52.787 42.225 98.53 95.012 98.53h267.433c52.787 0 95.012-42.23 95.012-98.53V654.515c3.523-56.3-42.225-98.53-95.007-98.53z m49.265 337.812c0 28.15-21.11 49.265-49.265 49.265H98.53c-28.15 0-49.264-21.115-49.264-49.265V650.993c0-28.15 21.115-49.265 49.264-49.265h267.433c28.155 0 49.265 21.115 49.265 49.265v242.805h0.005z" fill="#A7A6AB" p-id="4254"></path><path d="M161.869 693.228h144.276v144.27H161.87v-144.27z m485.606-218.179h274.473c56.305 0 98.53-45.747 98.53-98.53V126.68c0-56.3-45.748-98.53-98.53-98.53H647.475c-56.3 0-98.524 45.748-98.524 98.53v249.84c0 56.305 45.742 98.53 98.524 98.53z m-49.26-348.37c0-28.15 21.116-49.265 49.26-49.265h274.473c28.155 0 49.27 21.115 49.27 49.265v249.84c0 28.156-21.115 49.265-49.27 49.265H647.475c-28.144 0-49.26-21.11-49.26-49.264V126.679z" fill="#A7A6AB" p-id="4255"></path><path d="M721.377 168.909h147.794v147.789H721.377v-147.79zM580.618 746.004h151.317c14.07 0 24.632-10.557 24.632-24.632V570.061c0-14.075-10.563-24.633-24.632-24.633H580.618c-14.075 0-24.632 10.558-24.632 24.633v151.316c0.005 14.075 10.557 24.627 24.632 24.627z m344.853-168.903v42.224c0 14.075 14.075 28.15 28.15 28.15h42.23c14.074 0 28.149-14.075 28.149-28.15v-42.224c0-14.075-14.075-28.15-28.15-28.15h-42.23c-14.074 0-28.15 10.552-28.15 28.15zM591.176 995.85h52.787c14.075 0 24.632-10.558 24.632-24.638V918.43c0-14.075-10.557-24.638-24.632-24.638h-52.787c-14.075 0-24.633 10.563-24.633 24.638v52.782c0 14.08 10.558 24.637 24.633 24.637zM988.81 731.93H879.724a31.54 31.54 0 0 0-31.673 31.672v49.265H795.27c-21.115 0-35.195 14.074-35.195 35.19v109.086a31.54 31.54 0 0 0 31.678 31.672l197.053 3.523a31.54 31.54 0 0 0 31.672-31.672V763.607a31.54 31.54 0 0 0-31.667-31.677z" fill="#A7A6AB" p-id="4256"></path></svg>