<?xml version="1.0" standalone="no"?><!DOCTYPE svg PUBLIC "-//W3C//DTD SVG 1.1//EN" "http://www.w3.org/Graphics/SVG/1.1/DTD/svg11.dtd"><svg class="icon" width="200px" height="200.00px" viewBox="0 0 1024 1024" version="1.1" xmlns="http://www.w3.org/2000/svg"><path d="M494.4 125.8c-45.5-32.4-110.2-22.8-143.6 21.3l-180 237.6 689.3 1.2-365.7-260.1zM837.4 201.5c-7.1-30.7-38.9-50.3-70.6-43.4l-168.5 41.4L855 382.1l-17.6-180.6z" fill="#31C17C" /><path d="M950.3 389.3H75.5c-5 0-9 4.1-9 9s4.1 9 9 9h54.1v370.4c0 74.1 48.7 134.7 108.2 134.7H788c59.5 0 108.2-60.6 108.2-134.7V407.4h54.1c5 0 9-4.1 9-9s-4-9.1-9-9.1z" fill="#31C17C" /><path d="M609.3 669.7c-0.4 0.5-0.8 1.1-1.3 1.5l-77.3 77.3c-5.3 5.3-13.8 5.3-19.1 0L435 672.1c-0.5-0.5-1-1.1-1.5-1.8-12.6-11.2-20.5-27.5-20.5-45.7 0-33.7 27.2-61 60.8-61 19.1 0 36.1 8.8 47.3 22.7 11.1-13.8 28.2-22.7 47.3-22.7 33.6 0 60.8 27.3 60.8 61 0 17.8-7.7 33.9-19.9 45.1z m0 0" fill="#FFFFFF" /></svg>